<?xml version="1.0" standalone="no"?>
<!DOCTYPE svg PUBLIC "-//W3C//DTD SVG 20010904//EN"
 "http://www.w3.org/TR/2001/REC-SVG-20010904/DTD/svg10.dtd">
<svg version="1.0" xmlns="http://www.w3.org/2000/svg"
 width="512.000000pt" height="512.000000pt" viewBox="0 0 512.000000 512.000000"
 preserveAspectRatio="xMidYMid meet">

<g transform="translate(0.000000,512.000000) scale(0.100000,-0.100000)"
fill="#ff9800" stroke="none">
<path d="M2040 4763 c-164 -27 -315 -141 -387 -291 l-38 -79 -75 -17 c-204
-45 -370 -158 -485 -331 -59 -89 -111 -214 -123 -298 l-7 -52 -233 -3 -232 -2
0 162 0 163 51 24 c64 29 129 93 166 163 25 48 28 63 28 153 0 89 -3 106 -28
157 -36 74 -119 150 -195 178 -76 29 -204 25 -274 -8 -158 -77 -241 -255 -194
-417 10 -32 25 -70 33 -84 33 -52 99 -113 156 -142 l57 -29 0 -226 c0 -135 4
-233 10 -245 25 -45 51 -49 362 -49 l293 0 23 -87 c12 -47 21 -87 19 -88 -41
-19 -138 -95 -192 -149 -83 -85 -121 -150 -111 -190 12 -47 49 -76 97 -76 39
0 47 5 96 58 29 31 53 60 53 63 0 14 148 119 200 142 101 45 116 82 72 183
-51 118 -57 144 -57 259 0 89 4 124 24 183 100 305 439 480 721 373 69 -26
136 -67 186 -113 66 -61 122 -68 168 -21 20 20 26 36 26 68 0 40 -5 47 -63
101 -81 75 -155 119 -264 156 -49 17 -90 32 -92 34 -5 5 43 68 77 100 15 15
52 38 82 53 76 36 200 37 275 1 104 -50 179 -155 191 -267 11 -97 39 -133 104
-133 65 0 93 36 104 133 12 112 74 202 178 257 57 31 71 34 148 35 122 0 198
-38 276 -140 15 -20 25 -37 23 -39 -2 -2 -43 -17 -92 -34 -109 -37 -183 -81
-264 -156 -58 -54 -63 -62 -63 -100 0 -49 24 -83 65 -94 43 -12 80 1 129 46
50 46 117 87 186 113 254 96 561 -36 689 -296 83 -168 80 -341 -9 -538 -37
-82 -18 -117 94 -172 171 -82 307 -252 351 -436 19 -82 19 -236 0 -318 -44
-184 -180 -354 -351 -436 -112 -55 -131 -90 -94 -172 89 -197 92 -370 9 -538
-128 -260 -436 -392 -689 -296 -69 26 -136 67 -185 112 -54 50 -88 63 -131 49
-41 -14 -64 -49 -64 -99 0 -35 6 -45 63 -97 80 -75 166 -125 273 -159 46 -16
84 -32 84 -36 0 -4 -25 -35 -55 -67 -75 -82 -133 -107 -245 -107 -77 1 -91 4
-148 35 -104 55 -166 145 -178 257 -11 97 -39 133 -104 133 -65 0 -93 -36
-104 -133 -12 -111 -76 -203 -178 -258 -57 -30 -71 -33 -148 -34 -122 0 -198
38 -276 140 -15 20 -25 37 -23 39 2 2 43 17 92 34 109 37 183 81 264 156 57
52 63 62 63 97 0 50 -23 85 -64 99 -44 14 -75 2 -138 -55 -109 -98 -288 -155
-419 -134 -228 37 -404 183 -480 399 -19 53 -23 86 -24 180 0 121 5 143 57
264 46 105 33 132 -91 193 -62 30 -96 57 -184 145 -96 97 -111 108 -143 108
-46 0 -70 -14 -90 -52 -24 -46 -11 -84 55 -164 50 -61 195 -184 230 -195 8 -3
4 -32 -11 -92 l-23 -87 -293 0 c-311 0 -337 -4 -362 -49 -6 -12 -10 -110 -10
-245 l0 -226 -57 -29 c-57 -29 -123 -90 -156 -142 -8 -14 -23 -52 -33 -84 -47
-162 36 -340 194 -417 70 -33 198 -37 274 -8 76 28 159 104 195 178 25 51 28
68 28 157 0 90 -3 105 -28 153 -37 70 -102 134 -166 163 l-51 24 0 163 0 162
232 -2 232 -3 12 -65 c18 -98 58 -194 119 -286 115 -172 282 -286 486 -330
l77 -17 22 -54 c74 -179 255 -306 455 -320 151 -10 290 42 401 151 l64 62 64
-62 c111 -109 250 -161 401 -151 200 14 381 141 455 320 l22 54 77 17 c204 44
371 158 486 330 61 92 101 188 119 286 l12 65 232 3 232 2 0 -162 0 -163 -51
-24 c-65 -29 -130 -93 -165 -163 -40 -76 -45 -198 -13 -283 31 -83 121 -173
204 -204 79 -30 206 -27 277 7 157 76 240 256 194 416 -10 33 -25 71 -33 85
-33 52 -99 113 -155 142 l-58 29 0 226 c0 135 -4 233 -10 245 -25 45 -51 49
-362 49 l-293 0 -23 87 c-12 47 -21 87 -19 88 1 0 27 17 57 36 355 231 485
721 292 1105 -79 158 -202 288 -350 370 -2 1 7 40 20 88 l23 86 293 0 c311 0
337 4 362 49 6 12 10 110 10 245 l0 226 58 29 c73 38 134 100 169 176 24 51
28 72 28 145 -1 101 -28 171 -94 242 -63 69 -136 101 -240 106 -120 5 -184
-19 -267 -102 -83 -83 -108 -148 -102 -266 4 -68 10 -96 32 -138 35 -70 100
-134 165 -163 l51 -24 0 -163 0 -162 -232 2 -232 3 -12 65 c-18 98 -58 194
-119 286 -115 172 -282 286 -486 330 l-77 17 -22 54 c-74 179 -255 306 -455
320 -151 10 -290 -42 -401 -151 l-64 -62 -64 62 c-121 119 -294 174 -456 147z
m-1602 -273 c71 -44 95 -143 50 -210 -38 -55 -73 -75 -132 -75 -153 0 -213
201 -84 284 44 28 121 28 166 1z m4409 -1 c92 -57 96 -188 7 -255 -30 -23 -47
-29 -90 -29 -154 0 -213 205 -82 285 45 27 120 27 165 -1z m-4408 -3596 c95
-71 95 -204 -1 -263 -45 -27 -120 -27 -165 1 -62 39 -89 123 -59 192 37 87
153 123 225 70z m4417 -8 c63 -48 80 -124 44 -194 -71 -140 -290 -89 -290 67
0 132 143 206 246 127z"/>
<path d="M2511 3806 c-47 -26 -50 -46 -51 -283 l0 -223 -125 0 -125 0 0 140 0
140 -29 32 c-24 27 -36 33 -71 33 -35 0 -47 -6 -71 -33 l-29 -32 0 -140 0
-140 -45 0 c-98 0 -145 -45 -145 -140 l0 -50 -140 0 -140 0 -32 -29 c-27 -24
-33 -36 -33 -71 0 -35 6 -47 33 -71 l32 -29 140 0 140 0 0 -125 0 -125 -221 0
c-142 0 -228 -4 -242 -11 -75 -39 -75 -139 0 -178 14 -7 100 -11 242 -11 l221
0 0 -125 0 -125 -140 0 -140 0 -32 -29 c-27 -24 -33 -36 -33 -71 0 -35 6 -47
33 -71 l32 -29 140 0 140 0 0 -50 c0 -95 47 -140 145 -140 l45 0 0 -140 0
-140 29 -32 c24 -27 36 -33 71 -33 35 0 47 6 71 33 l29 32 0 140 0 140 125 0
125 0 0 -220 c0 -240 5 -265 55 -288 33 -15 57 -15 90 0 50 23 55 48 55 288
l0 220 125 0 125 0 0 -140 0 -140 29 -32 c24 -27 36 -33 71 -33 35 0 47 6 71
33 l29 32 0 140 0 140 45 0 c98 0 145 45 145 140 l0 50 140 0 140 0 32 29 c27
24 33 36 33 71 0 35 -6 47 -33 71 l-32 29 -140 0 -140 0 0 125 0 125 220 0
c237 0 261 4 286 51 18 35 18 63 0 98 -25 47 -49 51 -286 51 l-220 0 0 125 0
125 140 0 140 0 32 29 c27 24 33 36 33 71 0 35 -6 47 -33 71 l-32 29 -140 0
-140 0 0 50 c0 95 -47 140 -145 140 l-45 0 0 140 0 140 -29 32 c-24 27 -36 33
-71 33 -35 0 -47 -6 -71 -33 l-29 -32 0 -140 0 -140 -125 0 -125 0 0 220 c0
148 -4 227 -12 245 -22 48 -88 68 -137 41z m584 -1246 l0 -535 -535 0 -535 0
-3 525 c-1 289 0 531 3 538 3 10 116 12 537 10 l533 -3 0 -535z"/>
<path d="M584 2650 c-55 -22 -72 -108 -31 -155 48 -56 133 -40 163 31 12 29
12 39 0 68 -24 57 -75 79 -132 56z"/>
</g>
</svg>
