<svg version="1.0" xmlns="http://www.w3.org/2000/svg"
 width="512.000000pt" height="512.000000pt" viewBox="0 0 512.000000 512.000000"
 preserveAspectRatio="xMidYMid meet">

<g transform="translate(0.000000,512.000000) scale(0.100000,-0.100000)"
fill="#ff9800" stroke="none">
<path d="M4417 4989 c-10 -6 -135 -245 -278 -531 -276 -552 -274 -547 -229
-592 16 -16 37 -21 110 -24 l90 -4 0 -362 0 -363 26 -24 26 -24 271 -3 c295
-3 328 -1 358 29 18 18 19 36 19 383 l0 364 91 4 c85 4 94 6 115 32 13 15 24
36 24 47 0 21 -503 1034 -528 1062 -17 19 -67 22 -95 6z m406 -981 c-2 -5 -30
-8 -62 -8 -43 0 -65 -5 -82 -19 l-24 -19 -3 -371 -3 -371 -189 0 -190 0 0 364
c0 352 -1 364 -21 390 -18 23 -27 26 -85 26 -36 0 -64 4 -64 10 0 6 82 173
181 372 l182 363 182 -365 c101 -201 181 -368 178 -372z"/>
<path d="M3025 4600 c-11 -4 -158 -147 -327 -317 -265 -266 -308 -313 -308
-338 0 -17 23 -135 51 -264 l51 -233 -37 -38 -37 -38 -57 46 c-154 126 -360
222 -571 268 -117 25 -356 30 -481 10 -509 -84 -929 -446 -1082 -933 -84 -263
-81 -575 8 -838 125 -372 429 -691 793 -831 l72 -28 0 -451 0 -452 23 -21 c23
-22 29 -22 319 -22 163 0 304 3 313 6 43 17 45 41 45 483 l0 420 43 11 c56 14
172 54 220 74 l37 16 0 -480 0 -481 25 -24 24 -25 305 0 305 0 20 26 c21 27
21 32 21 840 0 567 -3 820 -11 837 -9 20 -5 42 20 120 87 271 85 575 -4 842
-49 147 -137 309 -226 416 -22 26 -39 51 -39 56 0 5 15 23 33 41 l33 32 249
-54 c224 -49 252 -53 280 -41 16 7 166 150 333 317 327 330 329 332 283 390
-17 21 -47 31 -221 68 l-200 44 100 101 c85 86 100 107 100 134 0 39 -38 81
-73 81 -31 0 -85 -41 -172 -129 l-69 -71 -43 198 c-37 171 -46 200 -68 220
-27 23 -47 26 -80 12z m24 -415 l32 -149 -223 -223 c-123 -123 -225 -223 -228
-223 -6 0 -70 285 -70 311 0 22 443 461 451 446 4 -6 21 -79 38 -162z m329
-306 l153 -33 -228 -227 -228 -228 -168 36 -168 37 228 228 c143 143 233 226
243 224 8 -3 84 -19 168 -37z m-1663 -344 c102 -16 213 -50 311 -95 63 -28
201 -116 253 -160 l25 -21 -106 -106 -106 -106 -39 31 c-60 47 -178 107 -273
138 -80 27 -95 28 -260 28 -165 0 -180 -1 -260 -28 -199 -65 -369 -190 -481
-352 -47 -68 -107 -201 -130 -289 -31 -115 -31 -306 -1 -428 79 -317 309 -556
627 -653 81 -25 105 -28 245 -28 140 0 164 3 243 27 321 98 550 337 629 654
30 121 29 313 -1 428 -25 96 -94 242 -145 309 l-38 49 103 103 c57 57 106 104
110 104 10 0 92 -116 141 -201 172 -297 199 -684 72 -1013 -125 -325 -398
-588 -724 -699 -434 -148 -907 -39 -1230 283 -233 231 -351 514 -353 840 -1
333 115 613 352 851 177 178 387 288 636 334 96 18 292 18 400 0z m-26 -461
c79 -20 170 -60 240 -105 l51 -34 -116 -116 -116 -117 -53 24 c-210 97 -448 9
-546 -200 -95 -203 -7 -442 199 -539 62 -30 75 -32 172 -32 93 0 111 3 163 27
82 38 134 83 177 150 79 121 90 268 32 393 l-30 63 117 116 116 116 32 -48
c87 -128 127 -260 127 -417 -2 -590 -652 -936 -1146 -609 -184 122 -305 333
-324 563 -8 93 15 236 52 323 89 212 281 382 496 438 95 25 266 26 357 4z
m-116 -473 c21 -5 41 -12 45 -15 3 -4 -28 -41 -70 -84 -117 -120 -130 -151
-83 -197 46 -47 76 -36 179 65 51 50 95 90 98 90 15 0 30 -77 25 -125 -21
-201 -255 -298 -407 -168 -129 111 -115 316 28 400 67 40 119 49 185 34z
m1067 -1666 l0 -655 -190 0 -190 0 0 469 0 468 74 57 c81 62 253 236 282 285
10 17 20 31 21 31 2 0 3 -295 3 -655z m-1147 68 l147 -6 0 -359 0 -358 -190 0
-190 0 0 371 0 372 43 -7 c23 -3 108 -9 190 -13z"/>
<path d="M4154 2929 c-12 -6 -27 -22 -33 -35 -8 -18 -11 -404 -11 -1375 l0
-1350 25 -24 24 -25 305 0 305 0 20 26 21 27 0 1357 c0 1322 -1 1358 -19 1381
l-19 24 -299 2 c-193 1 -306 -2 -319 -8z m496 -1399 l0 -1250 -190 0 -190 0 0
1250 0 1250 190 0 190 0 0 -1250z"/>
<path d="M3153 2420 c-12 -5 -26 -18 -32 -29 -8 -14 -11 -362 -11 -1124 l0
-1104 23 -21 c23 -22 29 -22 325 -22 287 0 303 1 322 20 11 11 22 30 25 42 3
13 4 513 3 1111 l-3 1089 -28 24 -28 24 -287 -1 c-158 0 -297 -4 -309 -9z
m497 -1145 l0 -995 -190 0 -190 0 0 995 0 995 190 0 190 0 0 -995z"/>
<path d="M105 755 l-25 -24 0 -281 0 -281 25 -24 24 -25 301 0 301 0 24 25 25
24 0 279 c0 267 -1 280 -21 306 l-20 26 -305 0 -305 0 -24 -25z m515 -305 l0
-170 -190 0 -190 0 0 170 0 170 190 0 190 0 0 -170z"/>
</g>
</svg>
